<svg width="182" height="125" viewBox="0 0 182 125" fill="none" xmlns="http://www.w3.org/2000/svg">
<rect width="12" height="12" rx="6" fill="#E6F0FF" fill-opacity="0.5"/>
<rect x="28.1992" width="12" height="12" rx="6" fill="#E6F0FF" fill-opacity="0.5"/>
<rect x="56.3984" width="12" height="12" rx="6" fill="#E6F0FF" fill-opacity="0.5"/>
<rect x="84.6016" width="12" height="12" rx="6" fill="#E6F0FF" fill-opacity="0.5"/>
<rect x="112.801" width="12" height="12" rx="6" fill="#E6F0FF" fill-opacity="0.5"/>
<rect x="141" width="12" height="12" rx="6" fill="#E6F0FF" fill-opacity="0.5"/>
<rect x="169.199" width="12" height="12" rx="6" fill="#E6F0FF" fill-opacity="0.5"/>
<rect y="28.1992" width="12" height="12" rx="6" fill="#E6F0FF" fill-opacity="0.5"/>
<rect x="28.1992" y="28.1992" width="12" height="12" rx="6" fill="#E6F0FF" fill-opacity="0.5"/>
<rect x="56.3984" y="28.1992" width="12" height="12" rx="6" fill="#E6F0FF" fill-opacity="0.5"/>
<rect x="84.6016" y="28.1992" width="12" height="12" rx="6" fill="#E6F0FF" fill-opacity="0.5"/>
<rect x="112.801" y="28.1992" width="12" height="12" rx="6" fill="#E6F0FF" fill-opacity="0.5"/>
<rect x="141" y="28.1992" width="12" height="12" rx="6" fill="#E6F0FF" fill-opacity="0.5"/>
<rect x="169.199" y="28.1992" width="12" height="12" rx="6" fill="#E6F0FF" fill-opacity="0.5"/>
<rect y="56.4004" width="12" height="12" rx="6" fill="#E6F0FF" fill-opacity="0.5"/>
<rect x="28.1992" y="56.4004" width="12" height="12" rx="6" fill="#E6F0FF" fill-opacity="0.5"/>
<rect x="56.3984" y="56.4004" width="12" height="12" rx="6" fill="#E6F0FF" fill-opacity="0.5"/>
<rect x="84.6016" y="56.4004" width="12" height="12" rx="6" fill="#E6F0FF" fill-opacity="0.5"/>
<rect x="112.801" y="56.4004" width="12" height="12" rx="6" fill="#E6F0FF" fill-opacity="0.5"/>
<rect x="141" y="56.4004" width="12" height="12" rx="6" fill="#E6F0FF" fill-opacity="0.5"/>
<rect x="169.199" y="56.4004" width="12" height="12" rx="6" fill="#E6F0FF" fill-opacity="0.5"/>
<rect y="84.5996" width="12" height="12" rx="6" fill="#E6F0FF" fill-opacity="0.5"/>
<rect x="28.1992" y="84.5996" width="12" height="12" rx="6" fill="#E6F0FF" fill-opacity="0.5"/>
<rect x="56.3984" y="84.5996" width="12" height="12" rx="6" fill="#E6F0FF" fill-opacity="0.5"/>
<rect x="84.6016" y="84.5996" width="12" height="12" rx="6" fill="#E6F0FF" fill-opacity="0.5"/>
<rect x="112.801" y="84.5996" width="12" height="12" rx="6" fill="#E6F0FF" fill-opacity="0.5"/>
<rect x="141" y="84.5996" width="12" height="12" rx="6" fill="#E6F0FF" fill-opacity="0.5"/>
<rect x="169.199" y="84.5996" width="12" height="12" rx="6" fill="#E6F0FF" fill-opacity="0.5"/>
<rect y="112.801" width="12" height="12" rx="6" fill="#E6F0FF" fill-opacity="0.5"/>
<rect x="28.1992" y="112.801" width="12" height="12" rx="6" fill="#E6F0FF" fill-opacity="0.5"/>
<rect x="56.3984" y="112.801" width="12" height="12" rx="6" fill="#E6F0FF" fill-opacity="0.5"/>
<rect x="84.6016" y="112.801" width="12" height="12" rx="6" fill="#E6F0FF" fill-opacity="0.5"/>
<rect x="112.801" y="112.801" width="12" height="12" rx="6" fill="#E6F0FF" fill-opacity="0.5"/>
<rect x="141" y="112.801" width="12" height="12" rx="6" fill="#E6F0FF" fill-opacity="0.5"/>
<rect x="169.199" y="112.801" width="12" height="12" rx="6" fill="#E6F0FF" fill-opacity="0.5"/>
</svg>
