<svg width="931" height="227" viewBox="0 0 931 227" fill="none" xmlns="http://www.w3.org/2000/svg">
<path d="M201.124 76.0952C201.124 76.3615 201.058 76.5612 200.925 76.6943H200.725C200.592 76.6943 200.459 76.6278 200.325 76.4946L175.759 51.9285L151.193 76.4946C151.06 76.6278 150.86 76.6943 150.594 76.6943C150.461 76.5612 150.394 76.3615 150.394 76.0952V50.9298L175.36 25.9642C175.626 25.6979 175.892 25.6979 176.159 25.9642L201.124 50.9298V76.0952ZM201.124 126.026C201.124 126.293 201.058 126.492 200.925 126.626H200.725C200.592 126.626 200.459 126.559 200.325 126.426L175.36 101.46V76.0952C175.36 75.962 175.426 75.8289 175.56 75.6957C175.826 75.6957 176.026 75.7623 176.159 75.8954L201.124 100.861V126.026ZM201.124 176.157C201.124 176.29 201.058 176.424 200.925 176.557H200.725C200.592 176.557 200.459 176.49 200.325 176.357L100.463 76.4946V50.9298L150.394 0.998635C150.527 0.865479 150.727 0.798901 150.993 0.798901C151.127 0.932057 151.193 1.06521 151.193 1.19836V26.5634L114.044 63.7122L201.124 150.792V176.157ZM201.124 226.089C201.124 226.222 201.058 226.355 200.925 226.488H200.725C200.592 226.488 200.459 226.421 200.325 226.288L50.5318 76.4946V50.9298L100.463 0.998635C100.596 0.865479 100.796 0.798901 101.062 0.798901C101.195 0.932057 101.262 1.06521 101.262 1.19836V26.5634L64.1131 63.7122L201.124 200.723V226.089ZM51.3307 26.5634L1.39949 76.4946C1.26634 76.6278 1.13319 76.6943 1.00004 76.6943H0.800311C0.667161 76.5612 0.600586 76.3615 0.600586 76.0952V50.9298L50.5318 0.998635C50.6649 0.865479 50.8647 0.798901 51.131 0.798901C51.2641 0.932057 51.3307 1.06521 51.3307 1.19836V26.5634ZM151.193 226.089C151.193 226.222 151.127 226.355 150.993 226.488H150.794C150.66 226.488 150.527 226.421 150.394 226.288L25.9656 101.86L1.39949 126.426C1.26634 126.559 1.06661 126.626 0.800311 126.626C0.667161 126.492 0.600586 126.293 0.600586 126.026V100.861L25.5662 75.8954C25.8325 75.6291 26.0988 75.6291 26.3651 75.8954L151.193 200.723V226.089ZM101.262 226.089C101.262 226.222 101.195 226.355 101.062 226.488H100.862C100.729 226.488 100.596 226.421 100.463 226.288L25.9656 151.791L1.39949 176.357C1.26634 176.49 1.06661 176.557 0.800311 176.557C0.667161 176.424 0.600586 176.29 0.600586 176.157V150.792L25.5662 125.827C25.8325 125.56 26.0988 125.56 26.3651 125.827L101.262 200.723V226.089ZM51.3307 226.089C51.3307 226.222 51.2641 226.355 51.131 226.488H50.9312C50.7981 226.488 50.6649 226.421 50.5318 226.288L25.9656 201.722L1.39949 226.288C1.26634 226.421 1.06661 226.488 0.800311 226.488C0.667161 226.355 0.600586 226.222 0.600586 226.089V200.723L25.5662 175.758C25.8325 175.492 26.0988 175.492 26.3651 175.758L51.3307 200.723V226.089Z" fill="#FCB706"/>
<path d="M300.987 26.5634L251.055 76.4946C250.922 76.6278 250.789 76.6943 250.656 76.6943C250.523 76.6943 250.39 76.6278 250.257 76.4946L200.325 26.5634V1.19836C200.325 1.06521 200.392 0.932057 200.525 0.798901C200.791 0.798901 200.991 0.865479 201.124 0.998635L250.656 50.5304L300.188 0.998635C300.321 0.865479 300.521 0.798901 300.787 0.798901C300.92 0.932057 300.987 1.06521 300.987 1.19836V26.5634ZM300.987 126.026C300.987 126.293 300.92 126.492 300.787 126.626H300.587C300.454 126.626 300.321 126.559 300.188 126.426L275.222 101.46V75.8954L300.188 50.9298C300.321 50.7967 300.521 50.7301 300.787 50.7301C300.92 50.8633 300.987 50.9964 300.987 51.1296V76.4946L288.803 88.6778L300.987 100.861V126.026ZM300.987 176.357L251.055 226.288C250.922 226.421 250.789 226.488 250.656 226.488H250.456C250.323 226.355 250.257 226.222 250.257 226.089V200.723L287.405 163.575L200.325 76.4946V51.1296C200.325 50.9964 200.392 50.8633 200.525 50.7301C200.791 50.7301 200.991 50.7967 201.124 50.9298L300.987 150.792V176.357ZM251.055 176.357L201.124 226.288C200.991 226.421 200.858 226.488 200.725 226.488H200.525C200.392 226.355 200.325 226.222 200.325 226.089V200.723L237.474 163.575L200.325 126.426V101.061C200.325 100.928 200.392 100.794 200.525 100.661C200.791 100.661 200.991 100.728 201.124 100.861L251.055 150.792V176.357Z" fill="#FCB706"/>
<path d="M350.918 76.0952C350.918 76.3615 350.851 76.5612 350.718 76.6943H350.518C350.385 76.6943 350.252 76.6278 350.119 76.4946L300.188 26.5634V1.19836C300.188 1.06521 300.254 0.932057 300.388 0.798901C300.654 0.798901 300.854 0.865479 300.987 0.998635L350.918 50.9298V76.0952ZM350.918 126.426L300.987 176.357C300.854 176.49 300.72 176.557 300.587 176.557H300.388C300.254 176.424 300.188 176.29 300.188 176.157V150.792L337.337 113.643L300.188 76.4946V51.1296C300.188 50.9964 300.254 50.8633 300.388 50.7301C300.654 50.7301 300.854 50.7967 300.987 50.9298L350.918 100.861V126.426ZM350.918 176.357L300.987 226.288C300.854 226.421 300.72 226.488 300.587 226.488H300.388C300.254 226.355 300.188 226.222 300.188 226.089V200.723L350.119 150.792C350.252 150.659 350.452 150.593 350.718 150.593C350.851 150.726 350.918 150.859 350.918 150.992V176.357Z" fill="#FCB706"/>
<path d="M550.643 126.026C550.643 126.293 550.576 126.492 550.443 126.626H550.243C550.11 126.626 549.977 126.559 549.844 126.426L524.878 101.46V75.8954L549.844 50.9298C549.977 50.7967 550.177 50.7301 550.443 50.7301C550.576 50.8633 550.643 50.9964 550.643 51.1296V76.4946L538.459 88.6778L550.643 100.861V126.026ZM425.815 51.529L400.849 76.4946C400.716 76.6278 400.583 76.6943 400.45 76.6943C400.316 76.6943 400.183 76.6278 400.05 76.4946L350.119 26.5634V1.19836C350.119 1.06521 350.186 0.932057 350.319 0.798901C350.585 0.798901 350.785 0.865479 350.918 0.998635L400.45 50.5304L412.233 38.7466L400.05 26.5634V1.19836C400.05 1.06521 400.117 0.932057 400.25 0.798901C400.516 0.798901 400.716 0.865479 400.849 0.998635L425.815 25.9642V51.529ZM475.746 51.529L400.849 126.426C400.716 126.559 400.583 126.626 400.45 126.626C400.316 126.626 400.183 126.559 400.05 126.426L350.119 76.4946L350.119 51.1296C350.119 50.9964 350.186 50.8633 350.319 50.7301C350.585 50.7301 350.785 50.7967 350.918 50.9298L400.45 100.462L462.165 38.7466L449.981 26.5634V1.19836C449.981 1.06521 450.048 0.932057 450.181 0.798901C450.447 0.798901 450.647 0.865479 450.78 0.998635L475.746 25.9642V51.529ZM525.677 51.529L388.666 188.54L400.849 200.723V226.089C400.849 226.222 400.783 226.355 400.649 226.488H400.45C400.316 226.488 400.183 226.421 400.05 226.288L375.085 201.323V175.758L512.096 38.7466L499.913 26.5634V1.19836C499.913 1.06521 499.979 0.932057 500.112 0.798901C500.379 0.798901 500.578 0.865479 500.711 0.998635L525.677 25.9642V51.529ZM550.643 176.157C550.643 176.29 550.576 176.424 550.443 176.557C550.177 176.557 549.977 176.49 549.844 176.357L500.312 126.825L438.597 188.54L450.78 200.723V226.089C450.78 226.222 450.714 226.355 450.581 226.488H450.381C450.248 226.488 450.115 226.421 449.981 226.288L425.016 201.323V175.758L499.913 100.861C500.179 100.595 500.445 100.595 500.711 100.861L550.643 150.792V176.157ZM550.643 226.089C550.643 226.222 550.576 226.355 550.443 226.488H550.243C550.11 226.488 549.977 226.421 549.844 226.288L500.312 176.756L488.528 188.54L500.711 200.723V226.089C500.711 226.222 500.645 226.355 500.512 226.488C500.245 226.488 500.046 226.421 499.913 226.288L474.947 201.323V175.758L499.913 150.792C500.179 150.526 500.445 150.526 500.711 150.792L550.643 200.723V226.089ZM375.883 151.391L350.918 176.357C350.785 176.49 350.652 176.557 350.518 176.557H350.319C350.186 176.424 350.119 176.29 350.119 176.157L350.119 150.792L362.302 138.609L350.119 126.426V101.061C350.119 100.928 350.186 100.794 350.319 100.661C350.585 100.661 350.785 100.728 350.918 100.861L375.883 125.827V151.391Z" fill="#FCB706"/>
<path d="M600.574 125.227C600.574 125.494 600.507 125.693 600.374 125.827H600.174C600.041 125.827 599.908 125.76 599.775 125.627L549.844 75.6957V50.1309L599.775 0.199734C599.908 0.066578 600.108 0 600.374 0C600.507 0.133156 600.574 0.266308 600.574 0.399456V25.7645L563.425 62.9133L600.574 100.062V125.227ZM600.574 175.358C600.574 175.492 600.507 175.625 600.374 175.758H600.174C600.041 175.758 599.908 175.691 599.775 175.558L549.844 125.627V100.262C549.844 100.129 549.91 99.9956 550.044 99.8624C550.31 99.8624 550.51 99.929 550.643 100.062L600.574 149.993V175.358ZM600.574 225.29C600.574 225.423 600.507 225.556 600.374 225.689H600.174C600.041 225.689 599.908 225.622 599.775 225.489L549.844 175.558V150.193C549.844 150.06 549.91 149.927 550.044 149.794C550.31 149.794 550.51 149.86 550.643 149.993L600.574 199.925V225.29Z" fill="#FCB706"/>
<path d="M700.436 76.0952C700.436 76.3615 700.37 76.5612 700.237 76.6943H700.037C699.904 76.6943 699.771 76.6278 699.637 76.4946L649.706 26.5634V1.19836C649.706 1.06521 649.773 0.932057 649.906 0.798901C650.172 0.798901 650.372 0.865479 650.505 0.998635L700.436 50.9298V76.0952ZM700.436 126.026C700.436 126.293 700.37 126.492 700.237 126.626H700.037C699.904 126.626 699.771 126.559 699.637 126.426L599.775 26.5634V1.19836C599.775 1.06521 599.842 0.932057 599.975 0.798901C600.241 0.798901 600.441 0.865479 600.574 0.998635L700.436 100.861V126.026ZM625.54 101.46L600.574 126.426C600.441 126.559 600.308 126.626 600.174 126.626H599.975C599.842 126.492 599.775 126.293 599.775 126.026V100.861L611.958 88.6778L599.775 76.4946V51.1296C599.775 50.9964 599.842 50.8633 599.975 50.7301C600.241 50.7301 600.441 50.7967 600.574 50.9298L625.54 75.8954V101.46ZM700.436 176.357L650.505 226.288C650.372 226.421 650.239 226.488 650.106 226.488H649.906C649.773 226.355 649.706 226.222 649.706 226.089V200.723L699.637 150.792C699.771 150.659 699.97 150.593 700.237 150.593C700.37 150.726 700.436 150.859 700.436 150.992V176.357ZM675.471 151.391L600.574 226.288C600.441 226.421 600.308 226.488 600.174 226.488H599.975C599.842 226.355 599.775 226.222 599.775 226.089V200.723L661.889 138.609L650.106 126.825L600.574 176.357C600.441 176.49 600.241 176.557 599.975 176.557C599.842 176.424 599.775 176.29 599.775 176.157V150.792L649.706 100.861C649.973 100.595 650.239 100.595 650.505 100.861L675.471 125.827V151.391Z" fill="#FCB706"/>
<path d="M750.367 76.0952C750.367 76.3615 750.301 76.5612 750.168 76.6943H749.968C749.835 76.6943 749.702 76.6278 749.569 76.4946L699.637 26.5634V1.19836C699.637 1.06521 699.704 0.932057 699.837 0.798901C700.103 0.798901 700.303 0.865479 700.436 0.998635L750.367 50.9298V76.0952ZM750.367 126.026C750.367 126.293 750.301 126.492 750.168 126.626H749.968C749.835 126.626 749.702 126.559 749.569 126.426L699.637 76.4946L699.637 51.1296C699.637 50.9964 699.704 50.8633 699.837 50.7301C700.103 50.7301 700.303 50.7967 700.436 50.9298L750.367 100.861V126.026ZM750.367 176.157C750.367 176.29 750.301 176.424 750.168 176.557H749.968C749.835 176.557 749.702 176.49 749.569 176.357L699.637 126.426L699.637 101.061C699.637 100.928 699.704 100.794 699.837 100.661C700.103 100.661 700.303 100.728 700.436 100.861L750.367 150.792V176.157ZM750.367 226.089C750.367 226.222 750.301 226.355 750.168 226.488H749.968C749.835 226.488 749.702 226.421 749.569 226.288L699.637 176.357V150.992C699.637 150.859 699.704 150.726 699.837 150.593C700.103 150.593 700.303 150.659 700.436 150.792L750.367 200.723V226.089Z" fill="#FCB706"/>
<path d="M850.23 76.0952C850.23 76.3615 850.163 76.5612 850.03 76.6943H849.83C849.697 76.6943 849.564 76.6278 849.431 76.4946L799.5 26.5634V1.19836C799.5 1.06521 799.566 0.932057 799.7 0.798901C799.966 0.798901 800.166 0.865479 800.299 0.998635L850.23 50.9298V76.0952ZM850.23 176.157C850.23 176.29 850.163 176.424 850.03 176.557H849.83C849.697 176.557 849.564 176.49 849.431 176.357L799.5 126.426V100.861L811.683 88.6778L749.569 26.5634V1.19836C749.569 1.06521 749.635 0.932057 749.768 0.798901C750.035 0.798901 750.234 0.865479 750.367 0.998635L825.264 75.8954V101.46L813.081 113.643L850.23 150.792V176.157ZM850.23 226.089C850.23 226.222 850.163 226.355 850.03 226.488H849.83C849.697 226.488 849.564 226.421 849.431 226.288L749.569 126.426V100.861L761.752 88.6778L749.569 76.4946V51.1296C749.569 50.9964 749.635 50.8633 749.768 50.7301C750.035 50.7301 750.234 50.7967 750.367 50.9298L775.333 75.8954V101.46L763.15 113.643L850.23 200.723V226.089ZM800.299 226.089C800.299 226.222 800.232 226.355 800.099 226.488H799.899C799.766 226.488 799.633 226.421 799.5 226.288L749.569 176.357V150.992C749.569 150.859 749.635 150.726 749.768 150.593C750.035 150.593 750.234 150.659 750.367 150.792L800.299 200.723V226.089Z" fill="#FCB706"/>
<path d="M950.092 76.0952C950.092 76.3615 950.026 76.5612 949.893 76.6943H949.693C949.56 76.6943 949.427 76.6278 949.293 76.4946L899.362 26.5634V1.19836C899.362 1.06521 899.429 0.932057 899.562 0.798901C899.828 0.798901 900.028 0.865479 900.161 0.998635L950.092 50.9298V76.0952ZM950.092 176.157C950.092 176.29 950.026 176.424 949.893 176.557H949.693C949.56 176.557 949.427 176.49 949.293 176.357L899.362 126.426V100.861L911.545 88.6778L849.431 26.5634V1.19836C849.431 1.06521 849.498 0.932057 849.631 0.798901C849.897 0.798901 850.097 0.865479 850.23 0.998635L925.127 75.8954V101.46L912.944 113.643L950.092 150.792V176.157ZM950.092 226.089C950.092 226.222 950.026 226.355 949.893 226.488H949.693C949.56 226.488 949.427 226.421 949.293 226.288L849.431 126.426V100.861L861.614 88.6778L849.431 76.4946V51.1296C849.431 50.9964 849.498 50.8633 849.631 50.7301C849.897 50.7301 850.097 50.7967 850.23 50.9298L875.196 75.8954V101.46L863.012 113.643L950.092 200.723V226.089ZM900.161 226.089C900.161 226.222 900.095 226.355 899.961 226.488H899.762C899.629 226.488 899.495 226.421 899.362 226.288L849.431 176.357V150.992C849.431 150.859 849.498 150.726 849.631 150.593C849.897 150.593 850.097 150.659 850.23 150.792L900.161 200.723V226.089Z" fill="#FCB706"/>
</svg>
