<svg width="86" height="53" viewBox="0 0 86 53" fill="none" xmlns="http://www.w3.org/2000/svg">
<path d="M44.3534 12.456C44.2608 12.6709 44.306 12.8908 44.4417 13.0643C44.575 13.2347 44.7932 13.3598 45.0564 13.4142L45.1153 13.4263L45.1167 13.4252C45.3622 13.4647 45.6099 13.4377 45.8198 13.3588C46.0449 13.2742 46.2404 13.1239 46.3295 12.9158C47.7781 9.54736 52.3673 7.16142 57.5228 7.16142C57.7963 7.16142 58.0495 7.08488 58.2379 6.95452C58.4257 6.82452 58.5593 6.63216 58.5593 6.40451C58.5593 6.17685 58.4257 5.98449 58.2379 5.85449C58.0495 5.72414 57.7963 5.6476 57.5228 5.6476C51.3087 5.6476 46.0501 8.51049 44.3534 12.456ZM44.3534 12.456L44.4717 12.5069M44.3534 12.456C44.3534 12.456 44.3534 12.456 44.3534 12.456L44.4717 12.5069M44.4717 12.5069C44.3284 12.8394 44.602 13.1889 45.0824 13.2881L44.4717 12.5069Z" fill="#0066FF" stroke="#F9FFF9" stroke-width="0.257528"/>
<path d="M70.2295 37.1832H64.7835C64.2823 37.1832 63.8758 36.9019 63.8758 36.5551C63.8758 36.2083 64.2823 35.9269 64.7835 35.9269H70.2295C77.7365 35.9269 83.8446 31.7 83.8446 26.5049C83.8446 21.3098 77.7365 17.0828 70.2295 17.0828H70.0985C69.8353 17.0828 69.585 17.0039 69.4126 16.8661C69.2401 16.7284 69.1623 16.5458 69.1999 16.3654C69.281 15.9742 69.3218 15.5811 69.3218 15.1984C69.3218 10.696 64.028 7.03259 57.522 7.03259C54.9908 7.03259 52.5771 7.57997 50.5412 8.61593C50.0939 8.84341 49.4585 8.74246 49.1998 8.40191C43.4342 0.804177 28.3749 -0.216122 20.5674 6.39325C17.2784 9.17768 15.9862 12.7998 17.0217 16.33C17.1358 16.7199 16.7046 17.0833 16.1322 17.0833H15.7684C8.26138 17.0833 2.15333 21.3103 2.15333 26.5054C2.15333 31.7005 8.26138 35.9274 15.7684 35.9274H21.2144C21.7156 35.9274 22.1221 36.2087 22.1221 36.5555C22.1221 36.9024 21.7156 37.1837 21.2144 37.1837H15.7684C7.26022 37.1837 0.337891 32.3932 0.337891 26.5053C0.337891 20.7825 6.87698 16.0966 15.0559 15.8382C14.2876 12.1757 15.7568 8.4813 19.1618 5.59821C27.5208 -1.47864 43.5402 -0.685415 50.312 7.20579C52.4724 6.26851 54.9444 5.77682 57.5217 5.77682C65.4042 5.77682 71.6503 10.4197 71.1037 15.844C79.2073 16.1586 85.6596 20.8198 85.6596 26.5049C85.6596 32.3932 78.7373 37.1832 70.229 37.1832L70.2295 37.1832Z" fill="#0066FF"/>
<path d="M20.0568 36.2007C20.0568 40.5846 22.6338 44.5458 26.7662 47.4055C30.8992 50.2657 36.5985 52.0331 42.8777 52.0331C49.1569 52.0331 54.8562 50.2656 58.9892 47.4055C63.1217 44.5457 65.6986 40.5845 65.6986 36.2007C65.6986 31.8168 63.1217 27.8556 58.9892 24.9959C54.8562 22.1357 49.1569 20.3683 42.8777 20.3683C36.5985 20.3683 30.8991 22.1357 26.7661 24.9959C22.6337 27.8557 20.0568 31.8169 20.0568 36.2007ZM22.1301 36.2007C22.1301 32.272 24.4393 28.6956 28.1961 26.0958C31.9522 23.4964 37.145 21.8824 42.8777 21.8824C48.6103 21.8824 53.8031 23.4964 57.5592 26.0958C61.316 28.6955 63.6253 32.272 63.6253 36.2007C63.6253 40.1293 61.316 43.7058 57.5592 46.3056C53.8031 48.9049 48.6103 50.519 42.8777 50.519C37.1451 50.519 31.9523 48.905 28.1961 46.3056C24.4394 43.7058 22.1301 40.1294 22.1301 36.2007Z" fill="#0066FF" stroke="#F9FFF9" stroke-width="0.257528"/>
<path d="M42.4982 42.522C42.4982 42.7032 42.6045 42.8535 42.7484 42.953C42.8927 43.0529 43.0851 43.1106 43.2915 43.1106C43.4978 43.1106 43.6902 43.053 43.8346 42.9532C43.9785 42.8536 44.0848 42.7033 44.0848 42.522V30.5653C44.0848 30.3841 43.9784 30.2338 43.8346 30.1343C43.6902 30.0344 43.4978 29.9767 43.2915 29.9767C43.0851 29.9767 42.8927 30.0344 42.7483 30.1343C42.6045 30.2338 42.4982 30.3841 42.4982 30.5653V42.522Z" fill="#0066FF" stroke="#0066FF" stroke-width="0.257528"/>
<path d="M37.9754 34.834C37.7845 34.834 37.5874 34.7839 37.432 34.6764C37.2753 34.568 37.1818 34.414 37.1818 34.2453C37.1818 34.0766 37.2753 33.9226 37.432 33.8142L42.748 30.1354L42.7481 30.1353L37.9754 34.834ZM37.9754 34.834C38.1661 34.834 38.3631 34.784 38.5184 34.6764L37.9754 34.834ZM48.0643 34.6764C48.2195 34.7838 48.4168 34.8339 48.6074 34.8339L38.5185 34.6763L43.2913 31.3733L48.0643 34.6764ZM48.6075 34.8339C48.7979 34.8339 48.9954 34.7842 49.1508 34.6762L48.6075 34.8339Z" fill="#0066FF" stroke="#0066FF" stroke-width="0.257528"/>
</svg>
