<svg width="20" height="21" viewBox="0 0 20 21" fill="none" xmlns="http://www.w3.org/2000/svg">
<path d="M5.58269 15.1488H3.4577C2.26604 15.1488 1.66602 14.5487 1.66602 13.3571V3.60712C1.66602 2.41545 2.26604 1.81543 3.4577 1.81543H7.04103C8.23269 1.81543 8.83266 2.41545 8.83266 3.60712V5.14876" stroke="#5A5C5E" stroke-width="1.25" stroke-miterlimit="10" stroke-linecap="round" stroke-linejoin="round"/>
<path d="M14.4737 7.16509V16.4651C14.4737 17.8068 13.807 18.4818 12.4654 18.4818H7.59868C6.25702 18.4818 5.58203 17.8068 5.58203 16.4651V7.16509C5.58203 5.82342 6.25702 5.14844 7.59868 5.14844H12.4654C13.807 5.14844 14.4737 5.82342 14.4737 7.16509Z" stroke="#5A5C5E" stroke-width="1.25" stroke-miterlimit="10" stroke-linecap="round" stroke-linejoin="round"/>
<path d="M11.166 5.14876V3.60712C11.166 2.41545 11.766 1.81543 12.9577 1.81543H16.541C17.7326 1.81543 18.3327 2.41545 18.3327 3.60712V13.3571C18.3327 14.5487 17.7326 15.1488 16.541 15.1488H14.4743" stroke="#5A5C5E" stroke-width="1.25" stroke-miterlimit="10" stroke-linecap="round" stroke-linejoin="round"/>
<path d="M8.33398 9.31543H11.6673" stroke="#5A5C5E" stroke-width="1.25" stroke-miterlimit="10" stroke-linecap="round" stroke-linejoin="round"/>
<path d="M8.33398 11.8154H11.6673" stroke="#5A5C5E" stroke-width="1.25" stroke-miterlimit="10" stroke-linecap="round" stroke-linejoin="round"/>
<path d="M10 18.4814V15.9814" stroke="#5A5C5E" stroke-width="1.25" stroke-miterlimit="10" stroke-linecap="round" stroke-linejoin="round"/>
</svg>
