<svg width="20" height="21" viewBox="0 0 20 21" fill="none" xmlns="http://www.w3.org/2000/svg">
<path d="M18.3333 9.23185V3.56519C18.3333 2.31519 17.8 1.81519 16.475 1.81519H13.1083C11.7833 1.81519 11.25 2.31519 11.25 3.56519V9.23185C11.25 10.4819 11.7833 10.9819 13.1083 10.9819H16.475C17.8 10.9819 18.3333 10.4819 18.3333 9.23185Z" stroke="#5A5C5E" stroke-width="1.25" stroke-linecap="round" stroke-linejoin="round"/>
<path d="M18.3333 16.7317V15.2317C18.3333 13.9817 17.8 13.4817 16.475 13.4817H13.1083C11.7833 13.4817 11.25 13.9817 11.25 15.2317V16.7317C11.25 17.9817 11.7833 18.4817 13.1083 18.4817H16.475C17.8 18.4817 18.3333 17.9817 18.3333 16.7317Z" stroke="#5A5C5E" stroke-width="1.25" stroke-linecap="round" stroke-linejoin="round"/>
<path d="M8.75033 11.0652V16.7319C8.75033 17.9819 8.21699 18.4819 6.89199 18.4819H3.52533C2.20033 18.4819 1.66699 17.9819 1.66699 16.7319V11.0652C1.66699 9.81519 2.20033 9.31519 3.52533 9.31519H6.89199C8.21699 9.31519 8.75033 9.81519 8.75033 11.0652Z" stroke="#5A5C5E" stroke-width="1.25" stroke-linecap="round" stroke-linejoin="round"/>
<path d="M8.75033 3.56519V5.06519C8.75033 6.31519 8.21699 6.81519 6.89199 6.81519H3.52533C2.20033 6.81519 1.66699 6.31519 1.66699 5.06519V3.56519C1.66699 2.31519 2.20033 1.81519 3.52533 1.81519H6.89199C8.21699 1.81519 8.75033 2.31519 8.75033 3.56519Z" stroke="#5A5C5E" stroke-width="1.25" stroke-linecap="round" stroke-linejoin="round"/>
</svg>
