<svg width="20" height="21" viewBox="0 0 20 21" fill="none" xmlns="http://www.w3.org/2000/svg">
<path d="M10 1.8127C4.99199 1.8127 0.931837 5.87269 0.931837 10.8809C0.931837 15.889 4.99183 19.949 10 19.949C15.0082 19.949 19.0682 15.889 19.0682 10.8809C19.0682 5.87269 15.0082 1.8127 10 1.8127ZM0.0204082 10.8809C0.0204082 5.36927 4.48841 0.901268 10 0.901268C15.5116 0.901268 19.9796 5.36927 19.9796 10.8809C19.9796 16.3924 15.5116 20.8605 10 20.8605C4.48841 20.8605 0.0204082 16.3924 0.0204082 10.8809Z" fill="black" stroke="#5A5C5E" stroke-width="0.0408163"/>
<path d="M9.04805 5.80757C8.24772 5.80757 7.59907 6.45622 7.59907 7.25655V8.20888C7.59907 8.46052 7.39488 8.66471 7.14324 8.66471C6.89159 8.66471 6.6874 8.46052 6.6874 8.20888V7.25655C6.6874 5.95276 7.74426 4.8959 9.04805 4.8959H10.9527C12.2565 4.8959 13.3134 5.95276 13.3134 7.25655V8.26916C13.3134 8.96972 13.0021 9.6341 12.464 10.0825L10.9774 11.3212C10.6472 11.5965 10.4562 12.0043 10.4562 12.4343V13.9232C10.4562 14.1748 10.252 14.379 10.0004 14.379C9.74874 14.379 9.54454 14.1748 9.54454 13.9232V12.4343C9.54454 11.7338 9.85579 11.0694 10.3939 10.621L11.8805 9.38227C12.2107 9.10703 12.4017 8.69918 12.4017 8.26916V7.25655C12.4017 6.45622 11.753 5.80757 10.9527 5.80757H9.04805Z" fill="black" stroke="#5A5C5E" stroke-width="0.0408163"/>
<path d="M9.99968 15.372C10.2513 15.372 10.4555 15.576 10.4555 15.8278V16.9917C10.4555 17.2435 10.2513 17.4476 9.99968 17.4476C9.74803 17.4476 9.54385 17.2435 9.54385 16.9917V15.8278C9.54385 15.576 9.74803 15.372 9.99968 15.372Z" fill="black" stroke="#5A5C5E" stroke-width="0.0408163"/>
</svg>
