<svg width="20" height="21" viewBox="0 0 20 21" fill="none" xmlns="http://www.w3.org/2000/svg">
<path d="M7.91699 11.607C7.91699 12.4153 8.542 13.0653 9.30867 13.0653H10.8753C11.542 13.0653 12.0837 12.4986 12.0837 11.7903C12.0837 11.032 11.7503 10.757 11.2587 10.582L8.75033 9.70696C8.25866 9.53196 7.92533 9.2653 7.92533 8.49863C7.92533 7.79863 8.46699 7.22363 9.13365 7.22363H10.7003C11.467 7.22363 12.092 7.87363 12.092 8.68197" stroke="#5A5C5E" stroke-width="1.25" stroke-linecap="round" stroke-linejoin="round"/>
<path d="M10 6.39844V13.8984" stroke="#5A5C5E" stroke-width="1.25" stroke-linecap="round" stroke-linejoin="round"/>
<path d="M18.3337 10.1485C18.3337 14.7485 14.6003 18.4819 10.0003 18.4819C5.40033 18.4819 1.66699 14.7485 1.66699 10.1485C1.66699 5.54852 5.40033 1.81519 10.0003 1.81519" stroke="#5A5C5E" stroke-width="1.25" stroke-linecap="round" stroke-linejoin="round"/>
<path d="M14.167 2.64844V5.98177H17.5003" stroke="#5A5C5E" stroke-width="1.25" stroke-linecap="round" stroke-linejoin="round"/>
<path d="M18.3337 1.81519L14.167 5.98185" stroke="#5A5C5E" stroke-width="1.25" stroke-linecap="round" stroke-linejoin="round"/>
</svg>
