<svg width="20" height="21" viewBox="0 0 20 21" fill="none" xmlns="http://www.w3.org/2000/svg">
<path d="M10.0003 12.2319C11.1509 12.2319 12.0837 11.2991 12.0837 10.1485C12.0837 8.99793 11.1509 8.06519 10.0003 8.06519C8.84973 8.06519 7.91699 8.99793 7.91699 10.1485C7.91699 11.2991 8.84973 12.2319 10.0003 12.2319Z" stroke="#5A5C5E" stroke-width="1.25" stroke-miterlimit="10" stroke-linecap="round" stroke-linejoin="round"/>
<path d="M15.417 8.06519V12.2319" stroke="#5A5C5E" stroke-width="1.25" stroke-miterlimit="10" stroke-linecap="round" stroke-linejoin="round"/>
<path d="M7.49967 15.1485C7.49967 15.7735 7.32469 16.3652 7.01635 16.8652C6.44135 17.8319 5.38301 18.4819 4.16634 18.4819C2.94967 18.4819 1.89133 17.8319 1.31633 16.8652C1.008 16.3652 0.833008 15.7735 0.833008 15.1485C0.833008 13.3069 2.32467 11.8152 4.16634 11.8152C6.00801 11.8152 7.49967 13.3069 7.49967 15.1485Z" stroke="#5A5C5E" stroke-width="1.25" stroke-miterlimit="10" stroke-linecap="round" stroke-linejoin="round"/>
<path d="M2.86719 15.1482L3.69218 15.9732L5.46718 14.3315" stroke="#5A5C5E" stroke-width="1.25" stroke-linecap="round" stroke-linejoin="round"/>
<path d="M1.66699 12.8983V7.64836C1.66699 4.73169 3.33366 3.48169 5.83366 3.48169H14.167C16.667 3.48169 18.3337 4.73169 18.3337 7.64836V12.6484C18.3337 15.565 16.667 16.815 14.167 16.815H7.08366" stroke="#5A5C5E" stroke-width="1.25" stroke-miterlimit="10" stroke-linecap="round" stroke-linejoin="round"/>
</svg>
