<svg width="20" height="21" viewBox="0 0 20 21" fill="none" xmlns="http://www.w3.org/2000/svg">
<path d="M10 6.24756V9.02256" stroke="#5A5C5E" stroke-width="1.25" stroke-miterlimit="10" stroke-linecap="round"/>
<path d="M10.0171 2.54761C6.9504 2.54761 4.46707 5.03094 4.46707 8.09761V9.84761C4.46707 10.4143 4.23374 11.2643 3.94207 11.7476L2.88374 13.5143C2.23374 14.6059 2.68374 15.8226 3.88374 16.2226C7.86707 17.5476 12.1754 17.5476 16.1587 16.2226C17.2837 15.8476 17.7671 14.5309 17.1587 13.5143L16.1004 11.7476C15.8087 11.2643 15.5754 10.4059 15.5754 9.84761V8.09761C15.5671 5.04761 13.0671 2.54761 10.0171 2.54761Z" stroke="#5A5C5E" stroke-width="1.25" stroke-miterlimit="10" stroke-linecap="round"/>
<path d="M12.7746 16.564C12.7746 18.089 11.5246 19.339 9.99961 19.339C9.24128 19.339 8.54128 19.0223 8.04128 18.5223C7.54128 18.0223 7.22461 17.3223 7.22461 16.564" stroke="#5A5C5E" stroke-width="1.25" stroke-miterlimit="10"/>
</svg>
