<svg width="20" height="21" viewBox="0 0 20 21" fill="none" xmlns="http://www.w3.org/2000/svg">
<path d="M15.0004 6.11519C14.9504 6.10686 14.8921 6.10686 14.8421 6.11519C13.6921 6.07352 12.7754 5.13185 12.7754 3.96519C12.7754 2.77352 13.7337 1.81519 14.9254 1.81519C16.1171 1.81519 17.0754 2.78185 17.0754 3.96519C17.0671 5.13185 16.1504 6.07352 15.0004 6.11519Z" stroke="#5A5C5E" stroke-width="1.25" stroke-linecap="round" stroke-linejoin="round"/>
<path d="M14.1422 12.1822C15.2839 12.3739 16.5422 12.1739 17.4255 11.5822C18.6005 10.7989 18.6005 9.51557 17.4255 8.73223C16.5339 8.14057 15.2589 7.94056 14.1172 8.14056" stroke="#5A5C5E" stroke-width="1.25" stroke-linecap="round" stroke-linejoin="round"/>
<path d="M4.97442 6.11519C5.02442 6.10686 5.08275 6.10686 5.13275 6.11519C6.28275 6.07352 7.19941 5.13185 7.19941 3.96519C7.19941 2.77352 6.24108 1.81519 5.04942 1.81519C3.85775 1.81519 2.89941 2.78185 2.89941 3.96519C2.90775 5.13185 3.82442 6.07352 4.97442 6.11519Z" stroke="#5A5C5E" stroke-width="1.25" stroke-linecap="round" stroke-linejoin="round"/>
<path d="M5.83255 12.182C4.69088 12.3737 3.43255 12.1737 2.54922 11.582C1.37422 10.7987 1.37422 9.51532 2.54922 8.73199C3.44089 8.14032 4.71588 7.94032 5.85755 8.14032" stroke="#5A5C5E" stroke-width="1.25" stroke-linecap="round" stroke-linejoin="round"/>
<path d="M10.0004 12.341C9.95039 12.3327 9.89206 12.3327 9.84206 12.341C8.69206 12.2994 7.77539 11.3577 7.77539 10.191C7.77539 8.99935 8.73372 8.04102 9.92539 8.04102C11.1171 8.04102 12.0754 9.00768 12.0754 10.191C12.0671 11.3577 11.1504 12.3077 10.0004 12.341Z" stroke="#5A5C5E" stroke-width="1.25" stroke-linecap="round" stroke-linejoin="round"/>
<path d="M7.57559 14.9657C6.40059 15.7491 6.40059 17.0324 7.57559 17.8157C8.90892 18.7074 11.0923 18.7074 12.4256 17.8157C13.6006 17.0324 13.6006 15.7491 12.4256 14.9657C11.1006 14.0824 8.90892 14.0824 7.57559 14.9657Z" stroke="#5A5C5E" stroke-width="1.25" stroke-linecap="round" stroke-linejoin="round"/>
</svg>
