<svg width="20" height="21" viewBox="0 0 20 21" fill="none" xmlns="http://www.w3.org/2000/svg">
<path d="M7.63314 9.20685C7.5498 9.19852 7.4498 9.19852 7.35814 9.20685C5.3748 9.14019 3.7998 7.51519 3.7998 5.51519C3.7998 3.47352 5.4498 1.81519 7.4998 1.81519C9.54147 1.81519 11.1998 3.47352 11.1998 5.51519C11.1915 7.51519 9.61647 9.14019 7.63314 9.20685Z" stroke="#5A5C5E" stroke-width="1.25" stroke-linecap="round" stroke-linejoin="round"/>
<path d="M13.6747 3.48169C15.2914 3.48169 16.5914 4.79002 16.5914 6.39836C16.5914 7.97336 15.3414 9.25669 13.7831 9.31502C13.7164 9.30669 13.6414 9.30669 13.5664 9.31502" stroke="#5A5C5E" stroke-width="1.25" stroke-linecap="round" stroke-linejoin="round"/>
<path d="M3.4666 12.2817C1.44993 13.6317 1.44993 15.8317 3.4666 17.1734C5.75827 18.7067 9.5166 18.7067 11.8083 17.1734C13.8249 15.8234 13.8249 13.6234 11.8083 12.2817C9.52494 10.7567 5.7666 10.7567 3.4666 12.2817Z" stroke="#5A5C5E" stroke-width="1.25" stroke-linecap="round" stroke-linejoin="round"/>
<path d="M15.2832 16.8152C15.8832 16.6902 16.4499 16.4485 16.9165 16.0902C18.2165 15.1152 18.2165 13.5069 16.9165 12.5319C16.4582 12.1819 15.8999 11.9485 15.3082 11.8152" stroke="#5A5C5E" stroke-width="1.25" stroke-linecap="round" stroke-linejoin="round"/>
</svg>
