<svg width="25" height="24" viewBox="0 0 25 24" fill="none" xmlns="http://www.w3.org/2000/svg">
<path d="M9.80078 2C7.18078 2 5.05078 4.13 5.05078 6.75C5.05078 9.32 7.06078 11.4 9.68078 11.49C9.76078 11.48 9.84078 11.48 9.90078 11.49C9.92078 11.49 9.93078 11.49 9.95078 11.49C9.96078 11.49 9.96078 11.49 9.97078 11.49C12.5308 11.4 14.5408 9.32 14.5508 6.75C14.5508 4.13 12.4208 2 9.80078 2Z" fill="#002459"/>
<path d="M14.8817 14.1499C12.0917 12.2899 7.54172 12.2899 4.73172 14.1499C3.46172 14.9999 2.76172 16.1499 2.76172 17.3799C2.76172 18.6099 3.46172 19.7499 4.72172 20.5899C6.12172 21.5299 7.96172 21.9999 9.80172 21.9999C11.6417 21.9999 13.4817 21.5299 14.8817 20.5899C16.1417 19.7399 16.8417 18.5999 16.8417 17.3599C16.8317 16.1299 16.1417 14.9899 14.8817 14.1499Z" fill="#002459"/>
<path d="M20.7902 7.3401C20.9502 9.2801 19.5702 10.9801 17.6602 11.2101C17.6502 11.2101 17.6502 11.2101 17.6402 11.2101H17.6102C17.5502 11.2101 17.4902 11.2101 17.4402 11.2301C16.4702 11.2801 15.5802 10.9701 14.9102 10.4001C15.9402 9.4801 16.5302 8.1001 16.4102 6.6001C16.3402 5.7901 16.0602 5.0501 15.6402 4.4201C16.0202 4.2301 16.4602 4.1101 16.9102 4.0701C18.8702 3.9001 20.6202 5.3601 20.7902 7.3401Z" fill="#002459"/>
<path d="M22.791 16.5904C22.711 17.5604 22.091 18.4004 21.051 18.9704C20.051 19.5204 18.791 19.7804 17.541 19.7504C18.261 19.1004 18.681 18.2904 18.761 17.4304C18.861 16.1904 18.271 15.0004 17.091 14.0504C16.421 13.5204 15.641 13.1004 14.791 12.7904C17.001 12.1504 19.781 12.5804 21.491 13.9604C22.411 14.7004 22.881 15.6304 22.791 16.5904Z" fill="#002459"/>
</svg>
