<svg width="25" height="24" viewBox="0 0 25 24" fill="none" xmlns="http://www.w3.org/2000/svg">
<path d="M9.66797 2C7.04797 2 4.91797 4.13 4.91797 6.75C4.91797 9.32 6.92797 11.4 9.54797 11.49C9.62797 11.48 9.70797 11.48 9.76797 11.49C9.78797 11.49 9.79797 11.49 9.81797 11.49C9.82797 11.49 9.82797 11.49 9.83797 11.49C12.398 11.4 14.408 9.32 14.418 6.75C14.418 4.13 12.288 2 9.66797 2Z" fill="#0F973D"/>
<path d="M14.7489 14.1499C11.9589 12.2899 7.40891 12.2899 4.59891 14.1499C3.32891 14.9999 2.62891 16.1499 2.62891 17.3799C2.62891 18.6099 3.32891 19.7499 4.58891 20.5899C5.98891 21.5299 7.82891 21.9999 9.66891 21.9999C11.5089 21.9999 13.3489 21.5299 14.7489 20.5899C16.0089 19.7399 16.7089 18.5999 16.7089 17.3599C16.6989 16.1299 16.0089 14.9899 14.7489 14.1499Z" fill="#0F973D"/>
<path d="M20.6573 7.3401C20.8173 9.2801 19.4373 10.9801 17.5273 11.2101C17.5173 11.2101 17.5173 11.2101 17.5073 11.2101H17.4773C17.4173 11.2101 17.3573 11.2101 17.3073 11.2301C16.3373 11.2801 15.4473 10.9701 14.7773 10.4001C15.8073 9.4801 16.3973 8.1001 16.2773 6.6001C16.2073 5.7901 15.9273 5.0501 15.5073 4.4201C15.8873 4.2301 16.3273 4.1101 16.7773 4.0701C18.7373 3.9001 20.4873 5.3601 20.6573 7.3401Z" fill="#0F973D"/>
<path d="M22.6582 16.5899C22.5782 17.5599 21.9582 18.3999 20.9182 18.9699C19.9182 19.5199 18.6582 19.7799 17.4082 19.7499C18.1282 19.0999 18.5482 18.2899 18.6282 17.4299C18.7282 16.1899 18.1382 14.9999 16.9582 14.0499C16.2882 13.5199 15.5082 13.0999 14.6582 12.7899C16.8682 12.1499 19.6482 12.5799 21.3582 13.9599C22.2782 14.6999 22.7482 15.6299 22.6582 16.5899Z" fill="#0F973D"/>
</svg>
