<svg width="25" height="24" viewBox="0 0 25 24" fill="none" xmlns="http://www.w3.org/2000/svg">
<path d="M21.5012 10.8404C21.8912 10.8404 22.2012 10.5304 22.2012 10.1404V9.21035C22.2012 5.11035 20.9512 3.86035 16.8512 3.86035H7.55117C3.45117 3.86035 2.20117 5.11035 2.20117 9.21035V9.68035C2.20117 10.0704 2.51117 10.3804 2.90117 10.3804C3.80117 10.3804 4.53117 11.1104 4.53117 12.0104C4.53117 12.9104 3.80117 13.6304 2.90117 13.6304C2.51117 13.6304 2.20117 13.9404 2.20117 14.3304V14.8004C2.20117 18.9004 3.45117 20.1504 7.55117 20.1504H16.8512C20.9512 20.1504 22.2012 18.9004 22.2012 14.8004C22.2012 14.4104 21.8912 14.1004 21.5012 14.1004C20.6012 14.1004 19.8712 13.3704 19.8712 12.4704C19.8712 11.5704 20.6012 10.8404 21.5012 10.8404ZM9.20117 8.88035C9.75117 8.88035 10.2012 9.33035 10.2012 9.88035C10.2012 10.4304 9.76117 10.8804 9.20117 10.8804C8.65117 10.8804 8.20117 10.4304 8.20117 9.88035C8.20117 9.33035 8.64117 8.88035 9.20117 8.88035ZM15.2012 15.8804C14.6412 15.8804 14.1912 15.4304 14.1912 14.8804C14.1912 14.3304 14.6412 13.8804 15.1912 13.8804C15.7412 13.8804 16.1912 14.3304 16.1912 14.8804C16.1912 15.4304 15.7612 15.8804 15.2012 15.8804ZM16.1012 9.48035L9.37117 16.2104C9.22117 16.3604 9.03117 16.4304 8.84117 16.4304C8.65117 16.4304 8.46117 16.3604 8.31117 16.2104C8.02117 15.9204 8.02117 15.4404 8.31117 15.1504L15.0412 8.42035C15.3312 8.13035 15.8112 8.13035 16.1012 8.42035C16.3912 8.71035 16.3912 9.19035 16.1012 9.48035Z" fill="#0F973D"/>
</svg>
