<svg width="25" height="24" viewBox="0 0 25 24" fill="none" xmlns="http://www.w3.org/2000/svg">
<path d="M21.7004 10.8404C22.0904 10.8404 22.4004 10.5304 22.4004 10.1404V9.21035C22.4004 5.11035 21.1504 3.86035 17.0504 3.86035H7.75039C3.65039 3.86035 2.40039 5.11035 2.40039 9.21035V9.68035C2.40039 10.0704 2.71039 10.3804 3.10039 10.3804C4.00039 10.3804 4.73039 11.1104 4.73039 12.0104C4.73039 12.9104 4.00039 13.6304 3.10039 13.6304C2.71039 13.6304 2.40039 13.9404 2.40039 14.3304V14.8004C2.40039 18.9004 3.65039 20.1504 7.75039 20.1504H17.0504C21.1504 20.1504 22.4004 18.9004 22.4004 14.8004C22.4004 14.4104 22.0904 14.1004 21.7004 14.1004C20.8004 14.1004 20.0704 13.3704 20.0704 12.4704C20.0704 11.5704 20.8004 10.8404 21.7004 10.8404ZM9.40039 8.88035C9.95039 8.88035 10.4004 9.33035 10.4004 9.88035C10.4004 10.4304 9.96039 10.8804 9.40039 10.8804C8.85039 10.8804 8.40039 10.4304 8.40039 9.88035C8.40039 9.33035 8.84039 8.88035 9.40039 8.88035ZM15.4004 15.8804C14.8404 15.8804 14.3904 15.4304 14.3904 14.8804C14.3904 14.3304 14.8404 13.8804 15.3904 13.8804C15.9404 13.8804 16.3904 14.3304 16.3904 14.8804C16.3904 15.4304 15.9604 15.8804 15.4004 15.8804ZM16.3004 9.48035L9.57039 16.2104C9.42039 16.3604 9.23039 16.4304 9.04039 16.4304C8.85039 16.4304 8.66039 16.3604 8.51039 16.2104C8.22039 15.9204 8.22039 15.4404 8.51039 15.1504L15.2404 8.42035C15.5304 8.13035 16.0104 8.13035 16.3004 8.42035C16.5904 8.71035 16.5904 9.19035 16.3004 9.48035Z" fill="#095B25"/>
</svg>
